<mxfile host="app.diagrams.net" modified="2020-08-14T12:18:33.223Z" agent="5.0 (Macintosh; Intel Mac OS X 10_15_6) AppleWebKit/537.36 (KHTML, like Gecko) Chrome/84.0.4147.125 Safari/537.36" etag="TEkwlHuq6FLYAY7cyP7h" version="13.6.2" type="github">
  <diagram id="-KEMAbPcn8YfJB1cS3U1" name="Page-1">
    <mxGraphModel dx="2946" dy="1104" grid="1" gridSize="10" guides="1" tooltips="1" connect="1" arrows="1" fold="1" page="1" pageScale="1" pageWidth="850" pageHeight="1100" math="0" shadow="0">
      <root>
        <mxCell id="0" />
        <mxCell id="1" parent="0" />
        <mxCell id="LGCorvV53YRYYdcrnPFH-2" value="sms360-auth" style="rounded=0;whiteSpace=wrap;html=1;" vertex="1" parent="1">
          <mxGeometry x="170" y="560" width="190" height="60" as="geometry" />
        </mxCell>
        <mxCell id="LGCorvV53YRYYdcrnPFH-3" value="sms360-models-services" style="rounded=0;whiteSpace=wrap;html=1;" vertex="1" parent="1">
          <mxGeometry x="170" y="650" width="190" height="60" as="geometry" />
        </mxCell>
        <mxCell id="LGCorvV53YRYYdcrnPFH-5" value="sms360-reports" style="rounded=0;whiteSpace=wrap;html=1;" vertex="1" parent="1">
          <mxGeometry x="170" y="730" width="190" height="60" as="geometry" />
        </mxCell>
        <mxCell id="LGCorvV53YRYYdcrnPFH-6" value="Worker" style="rounded=0;whiteSpace=wrap;html=1;" vertex="1" parent="1">
          <mxGeometry x="170" y="830" width="190" height="60" as="geometry" />
        </mxCell>
        <mxCell id="LGCorvV53YRYYdcrnPFH-7" value="NGINX" style="rounded=0;whiteSpace=wrap;html=1;" vertex="1" parent="1">
          <mxGeometry x="310" y="250" width="190" height="60" as="geometry" />
        </mxCell>
        <mxCell id="LGCorvV53YRYYdcrnPFH-10" value="Frontend Production Build (Views)" style="rounded=1;whiteSpace=wrap;html=1;" vertex="1" parent="1">
          <mxGeometry x="345" y="140" width="120" height="60" as="geometry" />
        </mxCell>
        <mxCell id="LGCorvV53YRYYdcrnPFH-11" value="Client" style="shape=umlActor;verticalLabelPosition=bottom;verticalAlign=top;html=1;outlineConnect=0;" vertex="1" parent="1">
          <mxGeometry x="390" y="30" width="30" height="60" as="geometry" />
        </mxCell>
      </root>
    </mxGraphModel>
  </diagram>
</mxfile>
